{"title":"Person of Interest S04E03 Wingman 720p HDTV X265","uid":11177673,"size":394348191,"categoryP":"video","categoryS":"hd___tv_shows","magnet":"?xt=urn:btih:1ed141d4238002a39f62fbc1aea234b4350effbb&amp;dn=Person+of+Interest+S04E03+Wingman+720p+HDTV+X265&amp;tr=udp%3A%2F%2Ftracker.openbittorrent.com%3A80&amp;tr=udp%3A%2F%2Fopen.demonii.com%3A1337&amp;tr=udp%3A%2F%2Ftracker.coppersurfer.tk%3A6969&amp;tr=udp%3A%2F%2Fexodus.desync.com%3A6969","seeders":1,"leechers":0,"uploader":"atm50","files":-1,"time":1412809828,"description":"Finch recruits Fusco to stick close to the latest POI, a professional &quot;wingman&quot;, but learning how to approach women soon becomes the least of his worries. Meanwhile, Reese must find a way to play by the rules at his new day job as the Machine sends Finch and Root on a mysterious errand.\n\nSource: Person of Interest S04E03 720p HDTV X264-DIMENSION [eztv]\n\nFormat                         : MPEG-4\nFile size                      : 376 MiB\nDuration                       : 43mn 29s\nOverall bit rate               : 1 209 Kbps\n\nVideo\n\nFormat                         : HEVC [X265]\nBit rate                       : 951 Kbps\nMaximum bit rate               : 9 323 Kbps\nWidth                          : 1 280 pixels\nHeight                         : 720 pixels\nDisplay aspect ratio           : 16:9\nFrame rate                     : 23.976 fps\nStream size                    : 296 MiB (79%)\n\nAudio\n\nFormat                         : AC-3\nBit rate                       : 256 Kbps\nChannel(s)                     : 6 channels (5.1)\nSampling rate                  : 48.0 KHz\nBit depth                      : 16 bits\nCompression mode               : Lossy\nStream size                    : 79.6 MiB (21%)\n\nSubtitles: English (External)","torrent":{"xt":"urn:btih:1ed141d4238002a39f62fbc1aea234b4350effbb","amp;dn":"Person+of+Interest+S04E03+Wingman+720p+HDTV+X265","amp;tr":["udp%3A%2F%2Ftracker.openbittorrent.com%3A80","udp%3A%2F%2Fopen.demonii.com%3A1337","udp%3A%2F%2Ftracker.coppersurfer.tk%3A6969","udp%3A%2F%2Fexodus.desync.com%3A6969"],"infoHash":"1ed141d4238002a39f62fbc1aea234b4350effbb","infoHashBuffer":{"type":"Buffer","data":[30,209,65,212,35,128,2,163,159,98,251,193,174,162,52,180,53,14,255,187]},"announce":[],"urlList":[]}}